<?xml version="1.0" encoding="iso-8859-1"?>
<!-- Generator: Adobe Illustrator 19.0.0, SVG Export Plug-In . SVG Version: 6.00 Build 0)  -->
<svg version="1.1" id="Layer_1" xmlns="http://www.w3.org/2000/svg" xmlns:xlink="http://www.w3.org/1999/xlink" x="0px" y="0px"
	 viewBox="0 0 503.322 503.322" style="enable-background:new 0 0 503.322 503.322;" xml:space="preserve">
<g>
	<path style="fill:#C4A316;" d="M208.27,433.898h86.78V260.339h-86.78V433.898z"/>
	<path style="fill:#F8D832;" d="M208.27,433.898h86.78l-6.717,26.85c-1.154,4.625-5.302,7.862-10.066,7.862h-53.213
		c-4.764,0-8.912-3.237-10.066-7.862L208.27,433.898z"/>
	<path style="fill:#C4A316;" d="M282.348,503.322h-61.379c-7.012,0-12.696-5.684-12.696-12.704v-9.303
		c0-7.02,5.684-12.705,12.696-12.705h61.379c7.012,0,12.705,5.684,12.705,12.705v9.303
		C295.052,497.638,289.359,503.322,282.348,503.322"/>
	<path style="fill:#F8D832;" d="M295.05,260.339h-86.78l17.356-34.712h52.068L295.05,260.339z"/>
	<path style="fill:#C4A316;" d="M225.626,225.627h52.068v-52.068h-52.068V225.627z"/>
	<path style="fill:#F8D832;" d="M277.694,173.559h-52.068c0-34.53,5.042-68.868,14.961-101.94l11.073-36.907l11.073,36.907
		C272.652,104.691,277.694,139.03,277.694,173.559"/>
	<path style="fill:#C4A316;" d="M86.778,433.898h86.78V225.627h-86.78V433.898z"/>
	<path style="fill:#F8D832;" d="M86.778,433.898h86.78l-6.717,26.85c-1.154,4.625-5.302,7.862-10.066,7.862h-53.213
		c-4.764,0-8.912-3.237-10.066-7.862L86.778,433.898z"/>
	<path style="fill:#C4A316;" d="M160.856,503.322H99.477c-7.012,0-12.696-5.684-12.696-12.704v-9.303
		c0-7.02,5.684-12.705,12.696-12.705h61.379c7.012,0,12.705,5.684,12.705,12.705v9.303
		C173.561,497.638,167.868,503.322,160.856,503.322"/>
	<path style="fill:#F8D832;" d="M173.558,225.627h-86.78l17.356-34.712h52.068L173.558,225.627z"/>
	<path style="fill:#C4A316;" d="M104.134,190.915h52.068v-52.068h-52.068V190.915z"/>
	<path style="fill:#F8D832;" d="M156.202,138.847h-52.068c0-34.53,5.042-68.868,14.961-101.94L130.168,0l11.073,36.907
		C151.16,69.979,156.202,104.318,156.202,138.847"/>
	<path style="fill:#C4A316;" d="M329.761,433.898h86.78V295.051h-86.78V433.898z"/>
	<path style="fill:#F8D832;" d="M329.761,433.898h86.78l-6.717,26.85c-1.154,4.625-5.302,7.862-10.066,7.862h-53.213
		c-4.764,0-8.912-3.237-10.066-7.862L329.761,433.898z"/>
	<path style="fill:#C4A316;" d="M403.839,503.322H342.46c-7.012,0-12.696-5.684-12.696-12.704v-9.303
		c0-7.02,5.684-12.705,12.696-12.705h61.379c7.012,0,12.705,5.684,12.705,12.705v9.303
		C416.544,497.638,410.851,503.322,403.839,503.322"/>
	<path style="fill:#F8D832;" d="M416.541,295.051h-86.78l17.356-34.712h52.068L416.541,295.051z"/>
	<path style="fill:#C4A316;" d="M347.117,260.339h52.068v-52.068h-52.068V260.339z"/>
	<path style="fill:#F8D832;" d="M399.185,208.271h-52.068c0-34.53,5.042-68.868,14.961-101.94l11.073-36.907l11.073,36.907
		C394.143,139.403,399.185,173.742,399.185,208.271"/>
</g>
<g>
</g>
<g>
</g>
<g>
</g>
<g>
</g>
<g>
</g>
<g>
</g>
<g>
</g>
<g>
</g>
<g>
</g>
<g>
</g>
<g>
</g>
<g>
</g>
<g>
</g>
<g>
</g>
<g>
</g>
</svg>
