<svg height="464pt" viewBox="0 -36 464.0005 464" width="464pt" xmlns="http://www.w3.org/2000/svg"><path d="m0 64h304v64h-304zm0 0" fill="#7d8d9c"/><path d="m176 0h-80v64h32v-32h48v32h32v-64zm0 0" fill="#195c85"/><path d="m96 88h16v16h-16zm0 0" fill="#394d5c"/><path d="m0 128h304v208h-304zm0 0" fill="#aabece"/><path d="m224 232c0 39.765625-32.234375 72-72 72s-72-32.234375-72-72 32.234375-72 72-72 72 32.234375 72 72zm0 0" fill="#fff"/><path d="m192 216h-24v-24h-32v24h-24v32h24v24h32v-24h24zm0 0" fill="#dd3e46"/><path d="m248 88h208v48h-208zm0 0" fill="#394d5c"/><path d="m424 168v-32h-144v32c-24.421875 10.9375-40.101562 35.242188-40 62v138h224v-138c.101562-26.757812-15.578125-51.0625-40-62zm0 0" fill="#195c85"/><path d="m336 224h128v112h-128zm0 0" fill="#cfdfe8"/><path d="m424 272h-16v-16c0-4.417969-3.582031-8-8-8s-8 3.582031-8 8v16h-16c-4.417969 0-8 3.582031-8 8s3.582031 8 8 8h16v16c0 4.417969 3.582031 8 8 8s8-3.582031 8-8v-16h16c4.417969 0 8-3.582031 8-8s-3.582031-8-8-8zm0 0" fill="#dd3e46"/><path d="m264 328c0 35.347656-28.652344 64-64 64s-64-28.652344-64-64 28.652344-64 64-64 64 28.652344 64 64zm0 0" fill="#f7a014"/><path d="m232 336h-64c-4.417969 0-8-3.582031-8-8s3.582031-8 8-8h64c4.417969 0 8 3.582031 8 8s-3.582031 8-8 8zm0 0" fill="#f9e712"/><path d="m80 152h-48c-4.417969 0-8 3.582031-8 8v80c0 4.417969 3.582031 8 8 8s8-3.582031 8-8v-72h40c4.417969 0 8-3.582031 8-8s-3.582031-8-8-8zm0 0" fill="#7d8d9c"/><path d="m0 88h64v16h-64zm0 0" fill="#394d5c"/><g fill="#aabece"><path d="m416 120h16v16h-16zm0 0"/><path d="m384 120h16v16h-16zm0 0"/><path d="m352 120h16v16h-16zm0 0"/><path d="m320 120h16v16h-16zm0 0"/></g><path d="m448 200h-80c-4.417969 0-8-3.582031-8-8s3.582031-8 8-8h80c4.417969 0 8 3.582031 8 8s-3.582031 8-8 8zm0 0" fill="#fff"/><path d="m336 200h-8c-4.417969 0-8-3.582031-8-8s3.582031-8 8-8h8c4.417969 0 8 3.582031 8 8s-3.582031 8-8 8zm0 0" fill="#fff"/><path d="m264 280c-4.417969 0-8-3.582031-8-8 0-74.015625 24.542969-85.945312 29.472656-87.582031 4.113282-1.34375 8.546875.824219 10.011719 4.894531s-.570313 8.566406-4.597656 10.152344c-.976563.535156-18.886719 10.886718-18.886719 72.535156 0 4.417969-3.582031 8-8 8zm0 0" fill="#fff"/><path d="m160 360v8c0 13.253906-10.746094 24-24 24h-48v-56h48c13.253906 0 24 10.746094 24 24zm0 0" fill="#195c85"/><path d="m16 368v-8c0-13.253906 10.746094-24 24-24h48v56h-48c-13.253906 0-24-10.746094-24-24zm0 0" fill="#dd3e46"/></svg>